<?xml version="1.0" encoding="UTF-8"?>
<svg version="1.1" xmlns="http://www.w3.org/2000/svg" width="626" height="626">
<path d="M0 0 C206.58 0 413.16 0 626 0 C626 206.58 626 413.16 626 626 C419.42 626 212.84 626 0 626 C0 419.42 0 212.84 0 0 Z " fill="#FEFEFE" transform="translate(0,0)"/>
<path d="M0 0 C3.24453397 -0.07543282 6.48947332 -0.12227758 9.73448181 -0.17240906 C10.90148621 -0.20246033 12.0684906 -0.2325116 13.27085876 -0.26347351 C20.80637135 -0.3139135 27.21513442 0.31722431 33.03835869 5.45623493 C37.16990493 9.68289218 38.24572742 12.79618049 38.34585571 18.6633606 C38.32516777 20.09599495 38.32516777 20.09599495 38.30406189 21.55757141 C38.31308533 22.58111221 38.32210876 23.60465302 38.33140564 24.65921021 C38.35432088 28.02576399 38.33545539 31.39072246 38.31651306 34.75727844 C38.32522673 37.09901589 38.33671533 39.44074451 38.3508606 41.78245544 C38.38123189 47.93395136 38.37681647 54.08492613 38.36424255 60.23646545 C38.35479986 67.73118115 38.38320482 75.22582888 38.40930462 82.72049141 C38.42934833 88.5462164 38.4425467 94.37167255 38.43511963 100.19743347 C38.43543686 101.26391617 38.43575409 102.33039886 38.43608093 103.42919922 C38.43659795 105.4294666 38.433342 107.42973963 38.42575073 109.42999268 C38.42742752 110.74210976 38.42742752 110.74210976 38.42913818 112.08073425 C38.42779782 112.84502684 38.42645746 113.60931942 38.42507648 114.39677238 C38.35746989 116.16926528 38.35746989 116.16926528 39.54698181 117.14009094 C41.85698181 117.14009094 44.16698181 117.14009094 46.54698181 117.14009094 C46.87698181 81.83009094 47.20698181 46.52009094 47.54698181 10.14009094 C56.5826961 6.75169809 56.5826961 6.75169809 60.54698181 6.01509094 C61.31010681 5.86813782 62.07323181 5.72118469 62.85948181 5.56977844 C94.33573517 0.53723794 125.28238304 5.29828325 155.54698181 14.14009094 C156.39325134 14.37470032 157.23952087 14.60930969 158.11143494 14.85102844 C162.67244048 16.14482763 166.93181499 17.70944971 171.26963806 19.62837219 C178.00527469 22.50154051 184.81463154 23.94949966 191.98448181 25.32759094 C193.20457947 25.57444641 194.42467712 25.82130188 195.68174744 26.07563782 C208.64646586 28.66031055 221.56861473 30.47026335 234.73448181 31.64009094 C235.43253937 31.70389954 236.13059692 31.76770813 236.84980774 31.83345032 C245.17188269 32.59182643 253.49092907 33.22916318 261.83604431 33.67134094 C262.59530716 33.71214783 263.35457001 33.75295471 264.13684082 33.79499817 C267.78299579 33.98796219 271.42895079 34.16512104 275.07701111 34.31782532 C297.05415158 35.33476071 297.05415158 35.33476071 304.21104431 42.49165344 C309.26371822 48.72623937 309.32609145 55.39110862 308.54698181 63.14009094 C307.42002684 67.71324155 305.28203763 71.23504753 301.54698181 74.14009094 C295.72444699 77.20803941 290.9543272 77.56822973 284.43663025 77.52485657 C282.95002899 77.53291573 282.95002899 77.53291573 281.43339539 77.5411377 C279.29181106 77.55088705 277.15018736 77.55386848 275.00858307 77.55078125 C271.62130916 77.54629452 268.23455519 77.56032586 264.84733582 77.57917786 C256.44101026 77.62214875 248.03469682 77.6332336 239.62828064 77.645401 C232.51261052 77.65691004 225.39717901 77.6804024 218.28160858 77.72009277 C214.94058337 77.73370153 211.59987707 77.72948639 208.25883484 77.72468567 C206.21913744 77.73402142 204.17944361 77.744189 202.13975525 77.75532532 C201.20776306 77.74917709 200.27577087 77.74302887 199.3155365 77.73669434 C198.03715912 77.74899834 198.03715912 77.74899834 196.73295593 77.7615509 C195.99262997 77.76226341 195.252304 77.76297592 194.48954391 77.76371002 C191.99624831 78.24679826 191.10002121 79.16939416 189.54698181 81.14009094 C189.14902026 83.08947799 189.14902026 83.08947799 189.29698181 85.14009094 C189.31245056 85.82071594 189.32791931 86.50134094 189.34385681 87.20259094 C189.49926062 89.35623986 189.49926062 89.35623986 190.54698181 92.14009094 C204.32525122 92.2561352 218.10340363 92.34488315 231.88206291 92.3991518 C238.28063644 92.42520308 244.67887466 92.46052054 251.07725525 92.51728821 C257.2564484 92.57176575 263.4353198 92.60154508 269.61473465 92.61447716 C271.96778042 92.62368867 274.32080935 92.64167659 276.6737175 92.66874123 C279.97934756 92.70523942 283.28366193 92.71002743 286.58946228 92.7077179 C287.55403854 92.72569427 288.51861481 92.74367065 289.51242065 92.76219177 C298.55327381 92.69420869 305.673758 89.22099018 312.42588806 83.26509094 C317.75093077 78.83671204 323.4482392 75.50588799 329.48448181 72.14009094 C331.79656487 70.82911601 334.10773454 69.51662401 336.41807556 68.20259094 C337.00708649 67.86872375 337.59609741 67.53485657 338.20295715 67.19087219 C344.5363936 63.59504223 350.79181564 59.87007729 357.04698181 56.14009094 C368.04167617 49.59880308 379.10240042 43.17981184 390.19151306 36.80024719 C396.44526379 33.20192345 402.68762491 29.5844062 408.92198181 25.95259094 C409.90029968 25.38306702 410.87861755 24.81354309 411.88658142 24.22676086 C416.73090766 21.39830334 421.55524841 18.54131665 426.35166931 15.63227844 C427.27028748 15.07564514 428.18890564 14.51901184 429.13536072 13.94551086 C430.86200994 12.8959324 432.58582976 11.84167964 434.30625916 10.78193665 C435.07147888 10.31618225 435.83669861 9.85042786 436.62510681 9.37055969 C437.28929626 8.96216858 437.95348572 8.55377747 438.63780212 8.13301086 C445.34815989 4.64310996 454.4458678 5.21709601 461.48448181 7.39009094 C469.22509206 10.43900037 472.97382354 15.80154753 476.54698181 23.14009094 C477.51752461 26.77817353 477.76758215 30.31937864 477.85948181 34.07759094 C477.89686462 35.07661438 477.93424744 36.07563782 477.97276306 37.10493469 C477.22686636 42.42201486 474.33655689 45.67355556 470.25401306 48.92915344 C468.96360127 49.88503882 467.66492963 50.82984474 466.35948181 51.76509094 C465.30651917 52.53659485 465.30651917 52.53659485 464.23228455 53.32368469 C462.01311479 54.9424601 459.78250321 56.54398724 457.54698181 58.14009094 C456.49027283 58.8956427 456.49027283 58.8956427 455.41221619 59.66645813 C451.18454296 62.68088746 446.9380208 65.66781742 442.68370056 68.64448547 C430.22405624 77.36566705 417.86146579 86.21540041 405.54698181 95.14009094 C396.05015768 102.02273553 386.53541672 108.87431034 376.94126892 115.62080383 C371.78107387 119.25470202 366.65789133 122.9372667 361.54698181 126.64009094 C352.92851597 132.87591396 344.29900543 139.09245342 335.54698181 145.14009094 C334.92839294 145.56838196 334.30980408 145.99667297 333.67247009 146.4379425 C318.84636132 156.61013373 303.99299831 161.47700833 286.54698181 165.14009094 C285.74059265 165.32257385 284.93420349 165.50505676 284.1033783 165.69306946 C281.37212503 166.17066708 278.82658543 166.26955875 276.05479431 166.27290344 C275.01967712 166.2741925 273.98455994 166.27548157 272.91807556 166.27680969 C271.84686462 166.2729425 270.77565369 166.26907532 269.67198181 166.26509094 C268.60850525 166.26895813 267.54502869 166.27282532 266.44932556 166.27680969 C264.89278259 166.2748761 264.89278259 166.2748761 263.30479431 166.27290344 C262.36780701 166.27177551 261.4308197 166.27064758 260.46543884 166.26948547 C257.54698181 166.14009094 257.54698181 166.14009094 254.42124939 165.69233704 C249.22897154 164.95221904 244.02941728 164.56545794 238.80088806 164.17134094 C237.6614827 164.08469177 236.52207733 163.9980426 235.34814453 163.9087677 C221.60218761 162.88823534 207.8405341 162.17862643 194.07603455 161.46284485 C182.12046478 160.83725773 170.18413927 160.15088337 158.25401306 159.14399719 C145.27297929 158.05576874 132.28077098 157.37799524 119.26957703 156.76487732 C116.584423 156.63828683 113.89942874 156.50994607 111.21452332 156.37834167 C97.95681792 155.72895778 84.70275479 155.09868043 71.42979431 154.86665344 C70.54815613 154.85012222 69.66651794 154.833591 68.75816345 154.81655884 C64.80674435 154.74637214 60.85741677 154.69971226 56.90538025 154.6945343 C55.55413781 154.67813234 54.20290029 154.66131716 52.85166931 154.64399719 C51.14986511 154.64121765 51.14986511 154.64121765 49.41368103 154.63838196 C45.92935931 154.03273551 44.74712718 152.83692464 42.54698181 150.14009094 C38.76473041 151.40084141 37.74722074 153.23172228 35.43760681 156.35102844 C28.82253025 162.61074965 20.22530896 161.58048418 11.70713806 161.53852844 C10.25656997 161.5405527 8.80600287 161.54346706 7.35543823 161.54722595 C4.32356524 161.55163422 1.29195847 161.54526792 -1.73988342 161.53120422 C-5.60769109 161.51412826 -9.47487337 161.52395248 -13.34265804 161.54192162 C-16.33600491 161.55281336 -19.32920595 161.54928832 -22.32255745 161.54153824 C-23.74777362 161.53955029 -25.17300344 161.54194562 -26.59820366 161.5489769 C-35.94105132 161.58495789 -42.7501606 161.21503629 -50.70301819 156.01509094 C-56.55527944 149.89681781 -58.37820627 142.34387666 -58.81019592 134.05976868 C-58.89059868 132.57279732 -58.89059868 132.57279732 -58.97262573 131.05578613 C-59.02674118 129.98919266 -59.08085663 128.92259918 -59.13661194 127.82368469 C-59.19640732 126.70709976 -59.2562027 125.59051483 -59.31781006 124.44009399 C-59.44548469 122.05391517 -59.57166464 119.667656 -59.69648743 117.28132629 C-60.01964878 111.11269549 -60.35463933 104.94471674 -60.69129944 98.77680969 C-60.75682007 97.5752121 -60.8223407 96.3736145 -60.8898468 95.13560486 C-61.37241276 86.3802957 -61.92434616 77.63430418 -62.57801819 68.89009094 C-62.65769836 67.82041077 -62.73737854 66.75073059 -62.81947327 65.64863586 C-62.9652424 63.69914989 -63.1112945 61.74968505 -63.25770569 59.80024719 C-63.71337499 53.59403127 -64.10630861 47.3870618 -64.36512756 41.16938782 C-64.42531812 39.77965486 -64.49478728 38.39030144 -64.57215881 37.00141907 C-65.11974924 26.74570005 -64.33072318 19.42911159 -57.91395569 11.15571594 C-52.20742756 4.8271492 -45.27633481 1.07411 -36.71922302 0.514328 C-33.02574561 0.37127324 -29.33642962 0.33820789 -25.64051819 0.32759094 C-24.04699031 0.30754206 -22.453483 0.2857917 -20.86000061 0.2624054 C-17.62631322 0.21931564 -14.39300248 0.19149029 -11.15907288 0.17524719 C-7.4380238 0.15390238 -3.71997952 0.08940418 0 0 Z " fill="#000000" transform="translate(106.45301818847656,392.8599090576172)"/>
<path d="M0 0 C0.55373291 0.75659912 1.10746582 1.51319824 1.67797852 2.29272461 C2.25733154 3.0997583 2.83668457 3.90679199 3.43359375 4.73828125 C4.04710693 5.58334229 4.66062012 6.42840332 5.29272461 7.29907227 C7.1599345 9.8774854 9.01635855 12.46338549 10.87109375 15.05078125 C11.4021875 15.78619141 11.93328125 16.52160156 12.48046875 17.27929688 C26.11906026 36.17296424 38.35541057 55.7986735 49.87109375 76.05078125 C50.27166992 76.74445801 50.67224609 77.43813477 51.08496094 78.15283203 C58.2224052 90.54304058 63.61845573 103.77663927 68.87109375 117.05078125 C69.19335938 117.84774414 69.515625 118.64470703 69.84765625 119.46582031 C77.0318989 137.72017518 76.22039003 160.74817642 69.24609375 178.98828125 C68.98884521 179.66503906 68.73159668 180.34179688 68.46655273 181.0390625 C65.8229879 187.66555668 62.19688519 193.38220975 57.87109375 199.05078125 C57.32839844 199.77652344 56.78570312 200.50226563 56.2265625 201.25 C47.4668538 212.09839837 35.3106477 218.38962787 22.87109375 224.05078125 C22.2570166 224.3334082 21.64293945 224.61603516 21.01025391 224.90722656 C15.61715259 227.3174372 10.99385027 228.17181986 5.1139679 228.2046814 C3.96354004 228.21328186 2.81311218 228.22188232 1.62782288 228.23074341 C0.37432541 228.23500336 -0.87917206 228.23926331 -2.1706543 228.24365234 C-3.51162931 228.25156143 -4.85260225 228.25983088 -6.193573 228.26843262 C-10.59256987 228.29458428 -14.99157586 228.30996475 -19.390625 228.32421875 C-20.91231605 228.32958338 -22.43400705 228.3349609 -23.95569801 228.3403511 C-30.29612118 228.36197987 -36.6365419 228.38070765 -42.97699261 228.3919735 C-52.01927501 228.40815194 -61.06112361 228.44117977 -70.10324258 228.49837434 C-76.48318948 228.53733002 -82.86302169 228.55663683 -89.24308425 228.56189406 C-93.04104019 228.56551599 -96.83853284 228.57719208 -100.63635826 228.6099968 C-126.67077626 228.82369303 -148.86029796 226.85282648 -168.59375 207.875 C-183.28627471 191.50721053 -189.39551761 169.99092667 -188.5703125 148.2421875 C-185.26756681 99.94290653 -144.05715559 49.46498042 -117.98095703 10.77786255 C-117.59214355 10.20099701 -117.20333008 9.62413147 -116.80273438 9.02978516 C-116.37350174 8.43252625 -115.9442691 7.83526733 -115.50202942 7.21990967 C-113.99831729 4.97196765 -113.99831729 4.97196765 -112.80986023 1.96807861 C-110.93802023 -1.83743165 -109.37829837 -4.19488665 -106.12890625 -6.94921875 C-99.13863262 -9.25253501 -91.34549427 -8.58245884 -84.0859375 -8.48046875 C-81.91213862 -8.49069071 -79.73835723 -8.50561456 -77.56462097 -8.52502441 C-73.01888311 -8.55351548 -68.47556049 -8.54305359 -63.92993164 -8.50146484 C-58.10494202 -8.44876707 -52.28290111 -8.46576107 -46.45790577 -8.50833893 C-41.97376758 -8.53816745 -37.48984954 -8.54516376 -33.00562096 -8.54380798 C-30.85782313 -8.54325031 -28.71002073 -8.54653117 -26.56223488 -8.5537262 C-23.56281383 -8.55757135 -20.56489879 -8.5340707 -17.56567383 -8.50195312 C-16.67984619 -8.50683243 -15.79401855 -8.51171173 -14.88134766 -8.51673889 C-7.66908339 -8.38983649 -4.22560589 -5.8224305 0 0 Z " fill="#000000" transform="translate(378.12890625,152.94921875)"/>
<path d="M0 0 C0.74886475 0.00523682 1.49772949 0.01047363 2.26928711 0.01586914 C3.07817383 0.0190918 3.88706055 0.02231445 4.72045898 0.02563477 C5.5705957 0.03401367 6.42073242 0.04239258 7.29663086 0.05102539 C8.15063477 0.05553711 9.00463867 0.06004883 9.88452148 0.06469727 C12.00108749 0.07652166 14.11761771 0.0944577 16.23413086 0.11352539 C16.23413086 4.40352539 16.23413086 8.69352539 16.23413086 13.11352539 C17.2022168 13.05680664 18.17030273 13.00008789 19.16772461 12.94165039 C23.85551435 12.94636766 27.9045537 14.33966876 32.29663086 15.86352539 C33.07329102 16.11618164 33.84995117 16.36883789 34.65014648 16.62915039 C39.39152037 18.23503486 43.20101118 20.14514931 47.23413086 23.11352539 C46.60012541 28.42245012 45.47088148 33.37458564 43.92163086 38.48852539 C43.72118164 39.21168945 43.52073242 39.93485352 43.31420898 40.67993164 C41.77547477 45.75823094 41.77547477 45.75823094 39.47241211 47.26977539 C36.14346532 47.03738818 33.70978576 45.71952795 30.73413086 44.23852539 C24.52782786 41.17807781 20.22414667 39.62299797 13.23413086 40.11352539 C10.21462933 40.90780498 10.21462933 40.90780498 8.23413086 43.11352539 C7.52111537 47.00270079 7.21955943 49.44366127 9.29516602 52.85986328 C13.37783633 57.65865566 17.84999657 60.69568427 23.29663086 63.80102539 C39.58104233 73.27921754 39.58104233 73.27921754 43.23413086 83.11352539 C44.71958658 91.62209729 44.34061626 100.56485033 39.75756836 108.04711914 C39.0034668 109.06999023 39.0034668 109.06999023 38.23413086 110.11352539 C37.77264648 110.74387695 37.31116211 111.37422852 36.83569336 112.02368164 C31.75596077 117.88987029 24.33584791 121.26764852 17.23413086 124.11352539 C15.91413086 124.11352539 14.59413086 124.11352539 13.23413086 124.11352539 C13.23413086 130.05352539 13.23413086 135.99352539 13.23413086 142.11352539 C7.62413086 142.11352539 2.01413086 142.11352539 -3.76586914 142.11352539 C-3.76586914 137.49352539 -3.76586914 132.87352539 -3.76586914 128.11352539 C-5.23540039 128.13672852 -6.70493164 128.15993164 -8.21899414 128.18383789 C-10.15128073 128.20259795 -12.08357281 128.2207979 -14.01586914 128.23852539 C-15.46799805 128.26366211 -15.46799805 128.26366211 -16.94946289 128.28930664 C-18.35131836 128.29897461 -18.35131836 128.29897461 -19.78149414 128.30883789 C-21.06975098 128.32454834 -21.06975098 128.32454834 -22.3840332 128.34057617 C-24.99719713 128.09147383 -26.59132851 127.57842716 -28.76586914 126.11352539 C-29.30493164 123.35571289 -29.30493164 123.35571289 -29.39086914 119.98852539 C-29.56811563 116.06748713 -29.76322813 112.45911243 -30.82836914 108.67602539 C-31.71513773 105.30630476 -31.93893434 102.57482928 -31.76586914 99.11352539 C-23.71217787 98.95245157 -23.71217787 98.95245157 -19.82836914 99.61352539 C-12.95812218 100.73519836 -6.27725226 100.69094787 0.23413086 98.11352539 C2.72572126 94.37613979 2.6920637 92.54020956 2.23413086 88.11352539 C-0.90158616 83.20225952 -5.33816714 80.37576416 -10.07836914 77.17602539 C-25.25520145 66.84938356 -25.25520145 66.84938356 -29.14086914 59.92602539 C-29.62297852 59.0868457 -30.10508789 58.24766602 -30.60180664 57.38305664 C-33.65622313 51.42796946 -33.62764916 44.97988979 -32.18774414 38.51977539 C-28.7290123 28.58378212 -21.08714529 20.79460486 -11.76586914 16.11352539 C-8.24167291 14.43152264 -6.77944481 14.11352539 -2.76586914 14.11352539 C-2.7774707 13.18668945 -2.78907227 12.25985352 -2.80102539 11.30493164 C-2.81004883 10.10739258 -2.81907227 8.90985352 -2.82836914 7.67602539 C-2.8399707 6.48106445 -2.85157227 5.28610352 -2.86352539 4.05493164 C-2.73473658 0.1758126 -2.73473658 0.1758126 0 0 Z " fill="#FBFBFB" transform="translate(318.765869140625,188.886474609375)"/>
<path d="M0 0 C5.27844573 2.16177919 10.55512547 3.52756177 16.12109375 4.73046875 C17.08337891 4.9421167 18.04566406 5.15376465 19.03710938 5.37182617 C38.86510548 9.6489417 57.39955601 11.07599294 76.58984375 3.46875 C81.12005007 1.72461502 84.70951717 1.67511438 89.37109375 3.10546875 C92.85126773 5.16834373 95.12368817 7.73436038 97.37109375 11.10546875 C98.0211655 14.41492495 98.23874376 15.93460235 97.37109375 19.10546875 C95.33940327 21.93925829 93.08242692 24.47754569 90.76953125 27.0859375 C86.31802572 32.69019446 83.62375861 39.34747418 81.37109375 46.10546875 C52.00109375 46.10546875 22.63109375 46.10546875 -7.62890625 46.10546875 C-9.60890625 41.15546875 -11.58890625 36.20546875 -13.62890625 31.10546875 C-15.62395603 27.6019667 -17.49513608 24.47284541 -20.05078125 21.390625 C-23.25094747 17.42637415 -24.42492942 14.46888524 -24.1171875 9.31640625 C-23.03611928 4.42132936 -20.02851597 1.34956628 -16.37890625 -1.89453125 C-10.68540591 -3.96489501 -5.39321428 -2.34212226 0 0 Z " fill="#000000" transform="translate(284.62890625,69.89453125)"/>
<path d="M0 0 C0.84390793 -0.00860046 1.68781586 -0.01720093 2.55729675 -0.02606201 C3.48510452 -0.03032196 4.41291229 -0.03458191 5.36883545 -0.03897095 C6.34460037 -0.04714844 7.3203653 -0.05532593 8.32569885 -0.06375122 C11.56500632 -0.08862755 14.80426989 -0.1051273 18.04364014 -0.11953735 C19.14860588 -0.12486103 20.25357162 -0.13018471 21.39202118 -0.13566971 C27.24089363 -0.16241145 33.08974465 -0.1817828 38.93865967 -0.19619751 C44.98270926 -0.21284471 51.02621352 -0.25762072 57.07005692 -0.30856895 C61.71462639 -0.3422125 66.359066 -0.35377185 71.00374603 -0.35942459 C73.23169877 -0.36614539 75.45964272 -0.3813888 77.68747711 -0.4053154 C80.80697648 -0.4369057 83.92499961 -0.43701246 87.0446167 -0.42959595 C88.42418297 -0.45420395 88.42418297 -0.45420395 89.83161926 -0.47930908 C94.18214104 -0.43699117 97.06686474 -0.22370817 100.52307129 2.56536865 C103.14381832 5.34286801 103.85543543 6.18519869 104.27801514 9.90390015 C103.88037149 14.0393941 102.62427903 15.99212687 99.96551514 19.15390015 C95.37346667 21.7298111 90.70581568 21.44297023 85.58880615 21.42855835 C84.18302307 21.43622475 84.18302307 21.43622475 82.74884033 21.44404602 C79.65563544 21.45792845 76.5626537 21.4569863 73.46942139 21.4546814 C71.31617653 21.45856895 69.16293243 21.46290374 67.00968933 21.46766663 C62.49811313 21.47512585 57.98661519 21.4748396 53.47503662 21.46957397 C47.69687698 21.46377853 41.91903779 21.48071377 36.14093113 21.50391865 C31.69451529 21.51865811 27.24817659 21.51952741 22.80174065 21.51640892 C20.67151187 21.51692198 18.54127875 21.52215688 16.41107368 21.53222084 C13.43104409 21.54457239 10.45163843 21.53780111 7.47161865 21.5262146 C6.5940239 21.53385834 5.71642914 21.54150208 4.8122406 21.54937744 C-0.20055332 21.50635063 -3.71914868 20.99154791 -8.03448486 18.15390015 C-10.71354216 14.1353142 -10.7305918 10.87748293 -10.03448486 6.15390015 C-7.21301679 1.63955124 -5.22922821 0.03963538 0 0 Z " fill="#010101" transform="translate(272.03448486328125,120.84609985351563)"/>
<path d="M0 0 C5.72170301 3.16510903 5.72170301 3.16510903 7 7 C6.24203125 7.45246094 5.4840625 7.90492188 4.703125 8.37109375 C-7.03523152 15.39096913 -18.71981613 22.49949721 -30.40771484 29.60290527 C-34.64372675 32.17701647 -38.88185345 34.74761599 -43.12109375 37.31640625 C-45.45584142 38.73158573 -47.79044439 40.14700371 -50.125 41.5625 C-50.98085693 42.08129227 -50.98085693 42.08129227 -51.85400391 42.61056519 C-58.41894336 46.5912918 -64.97155063 50.59099377 -71.50390625 54.625 C-72.41550507 55.18766823 -72.41550507 55.18766823 -73.34552002 55.76170349 C-76.26317677 57.56316565 -79.1790651 59.36739729 -82.09228516 61.17602539 C-83.63021729 62.12723267 -83.63021729 62.12723267 -85.19921875 63.09765625 C-86.10502686 63.65976807 -87.01083496 64.22187988 -87.9440918 64.80102539 C-90 66 -90 66 -91 66 C-91.03738281 65.02160156 -91.07476562 64.04320312 -91.11328125 63.03515625 C-91.17902344 61.72417969 -91.24476563 60.41320312 -91.3125 59.0625 C-91.39951172 57.13083984 -91.39951172 57.13083984 -91.48828125 55.16015625 C-91.88119514 50.52287167 -93.37410963 46.33507966 -95 42 C-94.41847168 41.69932617 -93.83694336 41.39865234 -93.23779297 41.08886719 C-78.69506084 33.56129161 -78.69506084 33.56129161 -64.28979492 25.77539062 C-60.66395891 23.7761793 -57.02263897 21.80599832 -53.38037109 19.83691406 C-50.87014566 18.4728424 -48.36618868 17.09950281 -45.86572266 15.71777344 C-42.05151822 13.61353851 -38.21903051 11.54572973 -34.37585449 9.49493408 C-32.8551108 8.67654431 -31.3401247 7.84734742 -29.83166504 7.00653076 C-20.07519396 1.57970142 -11.37965575 -2.37065533 0 0 Z " fill="#040404" transform="translate(519,390)"/>
<path d="M0 0 C2.9375 1.6875 2.9375 1.6875 3.9375 4.6875 C3.01864014 5.15945801 2.09978027 5.63141602 1.15307617 6.11767578 C-1.61160494 7.53779202 -4.37592484 8.95860933 -7.14013672 10.37963867 C-10.31119843 12.00963564 -13.48355133 13.63708406 -16.65673828 15.26293945 C-24.20708969 19.13533674 -31.74179672 23.029928 -39.22265625 27.03515625 C-40.46036593 27.69350628 -41.69823546 28.35155591 -42.9362793 29.00927734 C-45.22911739 30.23107978 -47.51602835 31.46408643 -49.79614258 32.70947266 C-50.8198999 33.25265137 -51.84365723 33.79583008 -52.8984375 34.35546875 C-54.22174072 35.07126099 -54.22174072 35.07126099 -55.57177734 35.80151367 C-60.47177465 37.54451408 -64.51737043 35.14190571 -69.0625 33.1875 C-75.73955351 30.53957135 -81.92076612 29.81607459 -89.0625 29.6875 C-86.94919937 27.57419937 -85.623209 26.97464012 -82.875 25.90234375 C-81.51532104 25.36577148 -81.51532104 25.36577148 -80.12817383 24.81835938 C-79.11650146 24.42455078 -78.1048291 24.03074219 -77.0625 23.625 C-74.81591315 22.73953132 -72.56986184 21.85270319 -70.32421875 20.96484375 C-69.70222092 20.71938812 -69.08022308 20.4739325 -68.43937683 20.22103882 C-62.70263439 17.95255952 -56.98503189 15.63780967 -51.26953125 13.31640625 C-49.86488113 12.74610939 -49.86488113 12.74610939 -48.43185425 12.16429138 C-44.63481979 10.62220707 -40.83803626 9.07951419 -37.04223633 7.53439331 C-34.34783747 6.43793941 -31.6525128 5.343789 -28.95703125 4.25 C-27.74428276 3.75524925 -27.74428276 3.75524925 -26.5070343 3.25050354 C-17.74271535 -0.3017738 -9.33836147 -3.65079975 0 0 Z " fill="#060606" transform="translate(476.0625,383.3125)"/>
<path d="M0 0 C-7.30967212 4.87311475 -14.96781768 4.28066017 -23.47509766 4.24291992 C-24.83745922 4.24399415 -26.19982033 4.24593491 -27.56217957 4.24867249 C-31.24591316 4.25350068 -34.92952474 4.2458911 -38.61324358 4.23571944 C-42.47461327 4.22690742 -46.33597949 4.22869698 -50.19735718 4.2290802 C-56.67846711 4.2281451 -63.15953007 4.21948096 -69.640625 4.20581055 C-77.1291184 4.19007343 -84.61756046 4.184813 -92.10606921 4.1855461 C-100.08844811 4.18622195 -108.07080728 4.17928009 -116.05318022 4.1700995 C-118.349812 4.16797037 -120.64644059 4.16725862 -122.94307327 4.16686058 C-126.55297277 4.16585473 -130.16282931 4.1597383 -133.77271461 4.14969444 C-135.72665085 4.14538935 -137.68059589 4.14594015 -139.63453674 4.14663696 C-141.38402367 4.14023949 -141.38402367 4.14023949 -143.16885376 4.13371277 C-144.68585341 4.131199 -144.68585341 4.131199 -146.23349953 4.12863445 C-148.9219633 4.00362849 -151.381009 3.60293903 -154 3 C-153.34 2.01 -152.68 1.02 -152 0 C-151.12961562 0.16224217 -150.25923124 0.32448435 -149.36247158 0.49164295 C-146.24240878 0.9633513 -143.35102642 1.12833017 -140.20045471 1.13371277 C-138.49939072 1.14011024 -138.49939072 1.14011024 -136.76396179 1.14663696 C-135.53418106 1.14618378 -134.30440033 1.14573059 -133.03735352 1.14526367 C-131.73098938 1.14862228 -130.42462524 1.1519809 -129.07867432 1.15544128 C-125.50635478 1.16424946 -121.93405921 1.16661802 -118.36172986 1.16725707 C-116.12739582 1.16796923 -113.89306781 1.17010667 -111.65873528 1.17275429 C-103.8570403 1.18199626 -96.05536238 1.1860905 -88.25366211 1.18530273 C-80.99185721 1.18470183 -73.73012657 1.1952591 -66.46834046 1.2110464 C-60.22357223 1.22413687 -53.97882824 1.22948602 -47.7340464 1.22884732 C-44.00872714 1.22859284 -40.28347395 1.23141698 -36.55816841 1.24202538 C-32.4027412 1.25353657 -28.2474798 1.24895032 -24.09204102 1.24291992 C-22.86428452 1.24853943 -21.63652802 1.25415894 -20.37156677 1.25994873 C-14.42157388 1.23799605 -5.24850712 -2.09940285 0 0 Z " fill="#111111" transform="translate(399,377)"/>
<path d="M0 0 C0.33 0 0.66 0 1 0 C0.14598058 22.54611273 -8.2081219 44.02728839 -24.75 59.75 C-29.97385377 64.2438121 -35.70838096 68.15284328 -42 71 C-42.66 70.67 -43.32 70.34 -44 70 C-43.33355469 69.48953125 -42.66710937 68.9790625 -41.98046875 68.453125 C-20.94614906 51.86101828 -7.5020202 30.15372099 -1.7265625 4.03515625 C-1 1 -1 1 0 0 Z " fill="#E9E9E9" transform="translate(434,291)"/>
<path d="M0 0 C0.5161084 0.48734619 1.0322168 0.97469238 1.56396484 1.47680664 C4.84327399 3.52727865 7.11571376 3.36888531 10.9765625 3.37109375 C12.49560829 3.38586202 14.01465112 3.40093639 15.53369141 3.41625977 C16.76940887 3.42074631 16.76940887 3.42074631 18.03009033 3.42532349 C40.59528739 3.5312098 63.10213068 4.80506741 85.625 6.0625 C87.33799019 6.15766217 89.05098254 6.25278558 90.76397705 6.34786987 C100.50983389 6.88962077 110.25515832 7.44028511 120 8 C120 8.33 120 8.66 120 9 C104.6783671 10.41629627 89.56547193 9.59436383 74.22778702 8.73788452 C68.02514042 8.39470595 61.8211073 8.07697627 55.6171875 7.7578125 C54.9400577 7.72265282 54.26292789 7.68749313 53.56527901 7.65126801 C44.98545491 7.20797226 36.41024705 6.85261685 27.8203125 6.6796875 C26.93803482 6.66152985 26.05575714 6.64337219 25.14674377 6.62466431 C21.18846735 6.54874419 17.23111283 6.49475525 13.2722168 6.46728516 C11.91715189 6.44714493 10.56208979 6.42681404 9.20703125 6.40625 C8.0672583 6.39916016 6.92748535 6.39207031 5.75317383 6.38476562 C3 6 3 6 1.11206055 4.66210938 C0 3 0 3 0 0 Z " fill="#080808" transform="translate(150,541)"/>
<path d="M0 0 C13.06504477 -0.11586306 26.12996727 -0.20470026 39.19542122 -0.25906086 C45.26230138 -0.28515164 51.32882998 -0.32054132 57.39550781 -0.37719727 C63.25049163 -0.43153389 69.10513735 -0.46142444 74.96035385 -0.47438622 C77.19390053 -0.483623 79.42742875 -0.50166037 81.66083145 -0.52865028 C84.79008178 -0.56496139 87.91793609 -0.56994433 91.04736328 -0.56762695 C91.97021622 -0.58560333 92.89306915 -0.60357971 93.84388733 -0.62210083 C98.19307997 -0.58726319 101.11762558 -0.37214194 104.59909058 2.38191223 C107 5 107 5 107.3671875 7.45703125 C107.20476562 8.23433594 107.04234375 9.01164063 106.875 9.8125 C106.72804688 10.60269531 106.58109375 11.39289063 106.4296875 12.20703125 C106.21699219 13.09455078 106.21699219 13.09455078 106 14 C105.67 14 105.34 14 105 14 C104.67 10.7 104.34 7.4 104 4 C101.26445267 3.08815089 99.62338865 2.86629034 96.80488586 2.84178162 C95.95093231 2.8319928 95.09697876 2.82220398 94.21714783 2.81211853 C92.81668968 2.80348534 92.81668968 2.80348534 91.38793945 2.79467773 C90.40239075 2.78477814 89.41684204 2.77487854 88.40142822 2.76467896 C85.13873713 2.7330519 81.87603148 2.70830168 78.61328125 2.68359375 C76.3531201 2.66302527 74.0929628 2.64202883 71.83280945 2.62062073 C65.87998576 2.56538914 59.9271273 2.51598461 53.97424316 2.46777344 C47.90141703 2.41756639 41.82864149 2.36187616 35.75585938 2.30664062 C23.83728279 2.19904573 11.9186623 2.09760367 0 2 C0 1.34 0 0.68 0 0 Z " fill="#0E0E0E" transform="translate(268,121)"/>
<path d="M0 0 C2 1 2 1 6 12 C34.05 12 62.1 12 91 12 C91.66 10.35 92.32 8.7 93 7 C93.33 7 93.66 7 94 7 C93.67 9.64 93.34 12.28 93 15 C63.63 15 34.26 15 4 15 C2.35 10.38 0.7 5.76 -1 1 C-0.67 0.67 -0.34 0.34 0 0 Z " fill="#111111" transform="translate(273,101)"/>
<path d="M0 0 C0.495 1.485 0.495 1.485 1 3 C-31.34 3 -63.68 3 -97 3 C-97.66 4.32 -98.32 5.64 -99 7 C-99.33 6.01 -99.66 5.02 -100 4 C-99.34 3.01 -98.68 2.02 -98 1 C-94.86256241 0.68417256 -91.91871526 0.56266772 -88.77685547 0.56762695 C-87.8207135 0.5574353 -86.86457153 0.54724365 -85.87945557 0.53674316 C-82.70864106 0.50646918 -79.5381279 0.49732524 -76.3671875 0.48828125 C-74.1728514 0.47144525 -71.97852502 0.45329649 -69.78421021 0.43388367 C-64.00070224 0.38626046 -58.21723362 0.35653085 -52.43359375 0.33044434 C-46.53507717 0.30070086 -40.63669634 0.2541493 -34.73828125 0.20898438 C-23.15892499 0.12281113 -11.5795409 0.05552834 0 0 Z " fill="#0B0B0B" transform="translate(370,145)"/>
<path d="M0 0 C2.55740369 3.79234645 2.08472646 8.01292394 1.98717213 12.44010067 C1.98848637 14.00686298 1.98848637 14.00686298 1.98982716 15.60527706 C1.98565716 19.04724357 1.9390294 22.48724543 1.89195728 25.9288702 C1.88076314 28.3192504 1.87222399 30.7096444 1.86623096 33.1000433 C1.84335031 39.38368564 1.78443173 45.66649245 1.71800709 51.94980526 C1.65656923 58.36458693 1.62921261 64.77950395 1.59898853 71.1944952 C1.53468938 83.77558031 1.4334751 96.35608701 1.30601978 108.9366827 C0.97601978 108.9366827 0.64601978 108.9366827 0.30601978 108.9366827 C0.30681538 107.63455837 0.30761097 106.33243404 0.30843067 104.9908514 C0.31203304 92.71926845 0.2842503 80.4481044 0.22574139 68.17665577 C0.19666973 61.86772327 0.17865544 55.55916288 0.1859026 49.25015926 C0.19248998 43.16149583 0.17004307 37.07356809 0.12746525 30.98505688 C0.1163237 28.6622762 0.11564323 26.33942101 0.12559605 24.01663494 C0.13775261 20.7624429 0.11271442 17.51050188 0.078969 14.25650692 C0.09118992 13.29625103 0.10341084 12.33599514 0.11600208 11.34664059 C0.02871479 6.67514812 -0.2452 3.81204212 -3.57773876 0.37518978 C-10.06531295 -4.70143725 -16.62596349 -4.45354833 -24.56898022 -4.6883173 C-25.63890209 -4.72698917 -26.70882397 -4.76566105 -27.81116772 -4.8055048 C-30.4386043 -4.89934182 -33.06604192 -4.98503287 -35.69398022 -5.0633173 C-35.69398022 -5.3933173 -35.69398022 -5.7233173 -35.69398022 -6.0633173 C-32.21634997 -6.32164003 -28.73725923 -6.539524 -25.25648022 -6.7508173 C-24.2825935 -6.82364933 -23.30870678 -6.89648136 -22.30530834 -6.97152042 C-13.41534882 -7.47696963 -6.46651166 -6.62458321 0 0 Z " fill="#161616" transform="translate(141.69398021697998,400.06331729888916)"/>
<path d="M0 0 C0.99 0.99 0.99 0.99 2 2 C-2.22704323 6.88751874 -6.82010362 9.55294204 -13.33978271 10.25024986 C-15.95914376 10.32760632 -18.55981699 10.30639354 -21.1796875 10.2487793 C-22.16596634 10.23946381 -23.15224518 10.23014832 -24.16841125 10.22055054 C-27.40430308 10.1863795 -30.63942281 10.13045106 -33.875 10.07421875 C-36.12799471 10.04616444 -38.3810068 10.01947631 -40.6340332 9.99409485 C-46.54595955 9.92383927 -52.45746757 9.8350892 -58.36907959 9.74243164 C-64.4086701 9.6510596 -70.44847278 9.57725477 -76.48828125 9.50195312 C-88.32579365 9.35178797 -100.16293842 9.18207556 -112 9 C-112 8.67 -112 8.34 -112 8 C-110.75464981 7.99635437 -109.50929962 7.99270874 -108.22621155 7.98895264 C-96.4706596 7.95195746 -84.71536851 7.89413501 -72.9600153 7.81609726 C-66.91693625 7.77664496 -60.87400243 7.74444526 -54.83081055 7.72900391 C-48.99510719 7.71382283 -43.15980318 7.67935069 -37.32427788 7.63169098 C-35.10167353 7.61689229 -32.87901217 7.60895986 -30.65635872 7.60811615 C-27.53488069 7.60574027 -24.41450068 7.57860936 -21.29321289 7.54589844 C-20.38114578 7.5509288 -19.46907867 7.55595917 -18.52937317 7.56114197 C-12.41481336 7.46247511 -7.22018148 6.32751746 -2 3 C-1.34 2.01 -0.68 1.02 0 0 Z " fill="#1B1B1B" transform="translate(411,460)"/>
<path d="M0 0 C20.69532463 0.61205216 41.33793674 1.70532311 62 3 C62 3.33 62 3.66 62 4 C48.36600071 5.09220305 35.02126504 4.80924756 21.375 4.0625 C19.38546101 3.96071794 17.39587753 3.85980185 15.40625 3.75976562 C10.60359724 3.51644885 5.80169194 3.26156703 1 3 C0.67 2.01 0.34 1.02 0 0 Z " fill="#161616" transform="translate(208,546)"/>
<path d="M0 0 C-0.33 0.66 -0.66 1.32 -1 2 C-1.86052979 2.02505615 -2.72105957 2.0501123 -3.60766602 2.07592773 C-6.87873523 2.17251572 -10.14970954 2.27162969 -13.4206543 2.37231445 C-14.82166671 2.41495327 -16.22270795 2.45665799 -17.6237793 2.49731445 C-27.43606685 2.78290385 -37.20935783 3.27938469 -47 4 C-42.11631488 0.12673249 -38.04821308 -0.1927618 -31.97265625 -0.3515625 C-30.79466713 -0.38629166 -30.79466713 -0.38629166 -29.59288025 -0.42172241 C-27.93283382 -0.46930983 -26.27271868 -0.51455015 -24.61254883 -0.55761719 C-22.07540804 -0.62465892 -19.53875351 -0.70247502 -17.00195312 -0.78125 C-15.38803889 -0.82617414 -13.7741069 -0.87046596 -12.16015625 -0.9140625 C-11.4027565 -0.93796051 -10.64535675 -0.96185852 -9.86500549 -0.98648071 C-6.42136899 -1.06820892 -3.28782515 -1.11515616 0 0 Z " fill="#0E0E0E" transform="translate(104,394)"/>
<path d="M0 0 C1.15701416 0.26538574 1.15701416 0.26538574 2.33740234 0.53613281 C11.65901999 2.7410862 20.80037067 5.57618601 29.9375 8.4375 C29.9375 8.7675 29.9375 9.0975 29.9375 9.4375 C23.83606329 9.69345596 18.88857023 8.88037442 13.0625 7.125 C12.27383545 6.8971582 11.4851709 6.66931641 10.67260742 6.43457031 C6.51834719 5.22870167 2.38317016 3.9636401 -1.75 2.6875 C-5.51811454 1.53159658 -9.14565584 0.86324393 -13.0625 0.4375 C-13.0625 0.1075 -13.0625 -0.2225 -13.0625 -0.5625 C-8.44213198 -1.94589786 -4.57014365 -1.08789181 0 0 Z " fill="#111111" transform="translate(242.0625,401.5625)"/>
<path d="M0 0 C0.69867188 0.72574219 1.39734375 1.45148438 2.1171875 2.19921875 C4.92709061 5.00615991 7.96192499 7.40716409 11.125 9.8125 C11.68614502 10.24119385 12.24729004 10.6698877 12.82543945 11.11157227 C17.4293232 14.61296237 22.11986018 17.98742756 26.85546875 21.30859375 C29 23 29 23 31 26 C27.15363069 26 26.10713948 24.4544403 23.35546875 21.97265625 C20.36679864 19.46970698 17.19855001 17.28657384 14 15.0625 C3.11162522 7.41008537 3.11162522 7.41008537 0 3 C0 2.01 0 1.02 0 0 Z " fill="#131313" transform="translate(290,250)"/>
<path d="M0 0 C2.60881235 2.40813448 4.70271882 4.93176282 6.75 7.8125 C9.50613515 11.56895832 12.601091 14.47423711 16.1640625 17.45703125 C18.23047236 19.19369486 20.13120588 21.05333946 22 23 C16.30306507 23 11.87271492 17.86906441 7.99609375 14 C4.33209115 9.94823038 1.52132266 5.84093951 -1 1 C-0.67 0.67 -0.34 0.34 0 0 Z " fill="#242424" transform="translate(201,346)"/>
<path d="M0 0 C1.55501869 3.54910147 0.50863149 6.13560609 -0.79248047 9.63671875 C-1.06721191 10.33410156 -1.34194336 11.03148437 -1.625 11.75 C-1.89844238 12.46285156 -2.17188477 13.17570312 -2.45361328 13.91015625 C-4.46647713 19.01049915 -6.8216535 23.51292259 -10 28 C-10.66 27.34 -11.32 26.68 -12 26 C-11.44570313 24.92621094 -10.89140625 23.85242188 -10.3203125 22.74609375 C-9.58821742 21.31006109 -8.85646477 19.87385382 -8.125 18.4375 C-7.76019531 17.73302734 -7.39539063 17.02855469 -7.01953125 16.30273438 C-4.80057803 11.92534485 -3.18933044 7.76358139 -2 3 C-1.34 3 -0.68 3 0 3 C0 2.01 0 1.02 0 0 Z " fill="#121212" transform="translate(433,309)"/>
<path d="M0 0 C0.33 0.99 0.66 1.98 1 3 C-2.3 4.32 -5.6 5.64 -9 7 C-9 7.66 -9 8.32 -9 9 C-15.435 9.495 -15.435 9.495 -22 10 C-19.82052083 7.82052083 -18.27567673 7.17146809 -15.4296875 6.0546875 C-14.53378906 5.70019531 -13.63789063 5.34570312 -12.71484375 4.98046875 C-11.77769531 4.61566406 -10.84054687 4.25085938 -9.875 3.875 C-8.93011719 3.50246094 -7.98523438 3.12992187 -7.01171875 2.74609375 C-4.67626533 1.82606664 -2.33901761 0.91091917 0 0 Z " fill="#1E1E1E" transform="translate(409,403)"/>
<path d="M0 0 C0.33 0 0.66 0 1 0 C0.55046968 8.60308032 -0.86101998 16.65932321 -3 25 C-4.60546875 23.98828125 -4.60546875 23.98828125 -6 22 C-5.60470654 19.23294579 -5.08664518 16.84756895 -4.3125 14.1875 C-4.12494141 13.48818359 -3.93738281 12.78886719 -3.74414062 12.06835938 C-2.6357669 7.9967047 -1.3721953 3.99127125 0 0 Z " fill="#B4B4B4" transform="translate(434,291)"/>
<path d="M0 0 C0.60996826 0.176521 1.21993652 0.35304199 1.84838867 0.53491211 C4.62748896 1.33788066 7.40748097 2.13771836 10.1875 2.9375 C11.62706055 3.35418945 11.62706055 3.35418945 13.09570312 3.77929688 C14.02705078 4.04677734 14.95839844 4.31425781 15.91796875 4.58984375 C16.77156982 4.83597412 17.6251709 5.08210449 18.50463867 5.33569336 C20.98946496 5.9971954 23.47382332 6.52325092 26 7 C25.67 7.66 25.34 8.32 25 9 C16.1190862 8.39790415 5.97439463 6.91050392 -1 1 C-0.67 0.67 -0.34 0.34 0 0 Z " fill="#101010" transform="translate(281,69)"/>
<path d="M0 0 C0.80244141 0.04833984 1.60488281 0.09667969 2.43164062 0.14648438 C3.68170898 0.2305957 3.68170898 0.2305957 4.95703125 0.31640625 C6.22450195 0.3947168 6.22450195 0.3947168 7.51757812 0.47460938 C9.60189424 0.60414314 11.68576307 0.74083802 13.76953125 0.87890625 C13.76953125 1.86890625 13.76953125 2.85890625 13.76953125 3.87890625 C5.51953125 3.54890625 -2.73046875 3.21890625 -11.23046875 2.87890625 C-7.09438381 0.81086378 -4.52895452 -0.2890822 0 0 Z " fill="#171717" transform="translate(288.23046875,550.12109375)"/>
<path d="M0 0 C0.66 0.33 1.32 0.66 2 1 C0.7625 2.051875 0.7625 2.051875 -0.5 3.125 C-3.2056249 5.76376139 -3.2056249 5.76376139 -3.625 9 C-2.79994465 12.96026569 -1.02684028 14.40556548 2 17 C2.66 17.66 3.32 18.32 4 19 C3.01 19.33 2.02 19.66 1 20 C-6.49184561 12.81394401 -6.49184561 12.81394401 -6.625 7.6875 C-6 4 -6 4 -4.6875 2.0625 C-3 1 -3 1 0 0 Z " fill="#191919" transform="translate(332,228)"/>
<path d="M0 0 C9.73944972 -0.12276617 19.29056184 0.16220564 29 1 C28.67 1.99 28.34 2.98 28 4 C23.05 3.67 18.1 3.34 13 3 C13 2.67 13 2.34 13 2 C8.71 1.67 4.42 1.34 0 1 C0 0.67 0 0.34 0 0 Z " fill="#1D1D1D" transform="translate(318,553)"/>
<path d="M0 0 C1.5778125 0.07831055 1.5778125 0.07831055 3.1875 0.15820312 C5.7504155 0.2863489 8.31278064 0.42122234 10.875 0.5625 C10.875 0.8925 10.875 1.2225 10.875 1.5625 C-0.08881862 3.10128156 -11.16118138 3.10128156 -22.125 1.5625 C-22.125 1.2325 -22.125 0.9025 -22.125 0.5625 C-14.66868482 -0.4287124 -7.50009932 -0.41508183 0 0 Z " fill="#222222" transform="translate(382.125,427.4375)"/>
<path d="M0 0 C0.99 0 1.98 0 3 0 C3.60754437 8.7351379 3.21412055 14.79334053 -2 22 C-2.66 21.34 -3.32 20.68 -4 20 C-3.525625 19.113125 -3.05125 18.22625 -2.5625 17.3125 C-0.1668051 11.84308334 -0.25661017 5.88433663 0 0 Z " fill="#2F2F2F" transform="translate(362,276)"/>
<path d="M0 0 C0.66 0.66 1.32 1.32 2 2 C1.49210937 2.37769531 0.98421875 2.75539062 0.4609375 3.14453125 C-4.84429163 7.38672758 -7.80162297 11.6491376 -10.7734375 17.7421875 C-12 20 -12 20 -14 21 C-13.01334858 12.86012582 -7.58243773 6.63743711 -2 1 C-1.34 0.67 -0.68 0.34 0 0 Z " fill="#101010" transform="translate(299,208)"/>
<path d="M0 0 C2.33327222 2.14543647 3.80481335 4.2034808 5.26171875 7.01171875 C5.85629883 8.14770508 5.85629883 8.14770508 6.46289062 9.30664062 C6.86701172 10.09232422 7.27113281 10.87800781 7.6875 11.6875 C8.10322266 12.48478516 8.51894531 13.28207031 8.94726562 14.10351562 C9.96987975 16.06646457 10.9872368 18.03195562 12 20 C11.34 20.99 10.68 21.98 10 23 C8.31982281 19.9238458 6.65828808 16.83800131 5 13.75 C4.52304687 12.87730469 4.04609375 12.00460938 3.5546875 11.10546875 C3.10351562 10.26113281 2.65234375 9.41679687 2.1875 8.546875 C1.76855469 7.77182617 1.34960938 6.99677734 0.91796875 6.19824219 C0 4 0 4 0 0 Z " fill="#121212" transform="translate(424,224)"/>
<path d="M0 0 C0.66 0 1.32 0 2 0 C-0.23313726 7.44379088 -3.40272079 14.11976695 -7 21 C-7.66 20.01 -8.32 19.02 -9 18 C-6.03 12.06 -3.06 6.12 0 0 Z " fill="#0A0A0A" transform="translate(209,248)"/>
<path d="M0 0 C-0.33 0.66 -0.66 1.32 -1 2 C-2.890625 2.23828125 -2.890625 2.23828125 -5.25 2.3125 C-10.04812822 2.71615206 -11.85765128 4.30311915 -15 8 C-15.99 8.33 -16.98 8.66 -18 9 C-16.86457505 4.58445852 -14.75395867 2.35513341 -11.0859375 -0.12890625 C-7.36717642 -1.68187202 -3.82828011 -0.87677164 0 0 Z " fill="#1C1C1C" transform="translate(280,68)"/>
<path d="M0 0 C0.99 0.33 1.98 0.66 3 1 C3.18451025 17.70842825 3.18451025 17.70842825 2 26 C1.67 26 1.34 26 1 26 C0.67 17.42 0.34 8.84 0 0 Z " fill="#303030" transform="translate(43,442)"/>
<path d="M0 0 C0.34615998 5.65394631 -0.56574762 9.03006806 -3 14 C-3.33 13.01 -3.66 12.02 -4 11 C-4.99 11.33 -5.98 11.66 -7 12 C-4.45454545 4.18181818 -4.45454545 4.18181818 -3 1 C-1 0 -1 0 0 0 Z " fill="#DFDFDF" transform="translate(430,312)"/>
<path d="M0 0 C0.78568359 -0.00257812 1.57136719 -0.00515625 2.38085938 -0.0078125 C3.59805664 0.00378906 3.59805664 0.00378906 4.83984375 0.015625 C5.65517578 0.00789063 6.47050781 0.00015625 7.31054688 -0.0078125 C8.09494141 -0.00523438 8.87933594 -0.00265625 9.6875 0 C10.40043213 0.00225586 11.11336426 0.00451172 11.84790039 0.00683594 C13.77734375 0.265625 13.77734375 0.265625 16.77734375 2.265625 C12.85902458 3.547984 8.91362137 3.41290637 4.83984375 3.390625 C4.13666016 3.39449219 3.43347656 3.39835937 2.70898438 3.40234375 C-1.06078137 3.39527765 -4.55859563 3.169092 -8.22265625 2.265625 C-5.35691154 0.64233437 -3.28759822 0.01038618 0 0 Z " fill="#101010" transform="translate(328.22265625,78.734375)"/>
<path d="M0 0 C0.68964844 -0.00386719 1.37929688 -0.00773437 2.08984375 -0.01171875 C7.24666707 -0.00166646 7.24666707 -0.00166646 9.5 1.125 C9.5 1.785 9.5 2.445 9.5 3.125 C8.47519531 3.11339844 7.45039062 3.10179687 6.39453125 3.08984375 C5.033856 3.08045978 3.67317876 3.07136023 2.3125 3.0625 C1.63896484 3.05412109 0.96542969 3.04574219 0.27148438 3.03710938 C-3.45434131 3.01893462 -6.8788042 3.23200608 -10.5 4.125 C-10.17 3.135 -9.84 2.145 -9.5 1.125 C-6.46570323 -0.39214839 -3.32398333 -0.01863916 0 0 Z " fill="#0A0A0A" transform="translate(511.5,389.875)"/>
<path d="M0 0 C1.2684375 -0.00386719 1.2684375 -0.00386719 2.5625 -0.0078125 C4.84698944 0.11666289 6.80991574 0.48622543 9 1.125 C9 1.785 9 2.445 9 3.125 C6.37472811 3.17882106 3.75055287 3.21858313 1.125 3.25 C0.37863281 3.26675781 -0.36773437 3.28351563 -1.13671875 3.30078125 C-3.09194461 3.3183959 -5.04742021 3.22820189 -7 3.125 C-7.66 2.465 -8.32 1.805 -9 1.125 C-5.93537096 0.23114986 -3.18818621 -0.00972008 0 0 Z " fill="#282828" transform="translate(467,381.875)"/>
<path d="M0 0 C9.405 3.465 9.405 3.465 19 7 C16 9 16 9 14.01953125 8.6796875 C8.80454276 6.77829347 3.91233151 4.59013843 -1 2 C-0.67 1.34 -0.34 0.68 0 0 Z " fill="#1B1B1B" transform="translate(224,369)"/>
<path d="M0 0 C0.50756836 0.4844458 1.01513672 0.9688916 1.53808594 1.46801758 C4.89872925 3.55925486 7.44842043 3.43350041 11.390625 3.51171875 C12.09523865 3.52966995 12.79985229 3.54762115 13.52581787 3.56611633 C15.76715179 3.62011858 18.00827405 3.65408088 20.25 3.6875 C21.77346689 3.72068218 23.29690589 3.75517269 24.8203125 3.79101562 C28.5466716 3.87583738 32.27310463 3.94269724 36 4 C36 4.33 36 4.66 36 5 C31.35586181 5.21712953 26.71147389 5.4139689 22.06567383 5.59204102 C20.48536197 5.65547413 18.90526245 5.7244491 17.32543945 5.79907227 C15.05452988 5.90537623 12.78360256 5.99172961 10.51171875 6.07421875 C9.80536789 6.11157639 9.09901703 6.14893402 8.3712616 6.18742371 C5.45327641 6.27687895 3.50104095 6.33508317 1.03051758 4.68286133 C0 3 0 3 0 0 Z " fill="#1C1C1C" transform="translate(150,541)"/>
<path d="M0 0 C0.66 0.33 1.32 0.66 2 1 C-2.33134166 6.61470215 -6.28196402 11.31278561 -13 14 C-13.66 13.67 -14.32 13.34 -15 13 C-14.25234375 12.39671875 -13.5046875 11.7934375 -12.734375 11.171875 C-11.74953125 10.37265625 -10.7646875 9.5734375 -9.75 8.75 C-8.77546875 7.96109375 -7.8009375 7.1721875 -6.796875 6.359375 C-4.39752456 4.33534195 -2.17588563 2.25877651 0 0 Z " fill="#EEEEEE" transform="translate(405,348)"/>
<path d="M0 0 C0.33 0 0.66 0 1 0 C2.66666667 6.66666667 4.33333333 13.33333333 6 20 C5.34 20.33 4.68 20.66 4 21 C3.12862849 18.63011071 2.27793192 16.25585224 1.4375 13.875 C1.19064453 13.20984375 0.94378906 12.5446875 0.68945312 11.859375 C-0.82693574 7.50242673 -1.16271847 4.46985184 0 0 Z " fill="#121212" transform="translate(193,321)"/>
<path d="M0 0 C4.27131965 6.40697948 5.42104151 13.42125279 5 21 C2.64741389 17.47112083 1.80623911 13.99496906 0.8125 9.9375 C0.62236328 9.20466797 0.43222656 8.47183594 0.23632812 7.71679688 C-1.12439646 2.24879292 -1.12439646 2.24879292 0 0 Z " fill="#141414" transform="translate(445,267)"/>
<path d="M0 0 C1.8871875 0.0309375 1.8871875 0.0309375 3.8125 0.0625 C3.8125 1.0525 3.8125 2.0425 3.8125 3.0625 C-1.1375 3.3925 -6.0875 3.7225 -11.1875 4.0625 C-7.06754859 0.97253645 -4.95877069 -0.08129132 0 0 Z " fill="#212121" transform="translate(68.1875,393.9375)"/>
<path d="M0 0 C3.04640463 2.86720436 5.78043089 5.83935407 8.375 9.125 C8.89835937 9.78757813 9.42171875 10.45015625 9.9609375 11.1328125 C10.30382812 11.74898437 10.64671875 12.36515625 11 13 C10.67 13.99 10.34 14.98 10 16 C8.99406757 14.8803014 7.9954151 13.7540588 7 12.625 C6.1646875 11.68527344 6.1646875 11.68527344 5.3125 10.7265625 C4 9 4 9 4 7 C3.34 7 2.68 7 2 7 C1.01 5.02 0.02 3.04 -1 1 C-0.67 0.67 -0.34 0.34 0 0 Z " fill="#1B1B1B" transform="translate(373,148)"/>
<path d="M0 0 C-1.28998608 3.86995825 -3.05277704 4.8494623 -6.3125 7.25 C-7.76076172 8.34054687 -7.76076172 8.34054687 -9.23828125 9.453125 C-12 11 -12 11 -14.17260742 10.59667969 C-14.77564697 10.39977539 -15.37868652 10.20287109 -16 10 C-13.71234889 8.32756577 -11.42026108 6.66193073 -9.125 5 C-8.47402344 4.52304687 -7.82304687 4.04609375 -7.15234375 3.5546875 C-2.2265625 0 -2.2265625 0 0 0 Z " fill="#171717" transform="translate(488,503)"/>
<path d="M0 0 C-4.77513836 4.28115853 -10.36156231 7.03759841 -16 10 C-16 9.01 -16 8.02 -16 7 C-13.91496465 5.41763366 -11.92372272 4.08080205 -9.6875 2.75 C-9.09259766 2.37359375 -8.49769531 1.9971875 -7.88476562 1.609375 C-3.38217872 -1.12739291 -3.38217872 -1.12739291 0 0 Z " fill="#141414" transform="translate(457,438)"/>
<path d="M0 0 C4.09189762 1.36396587 4.61547327 3.34848983 6.6875 7.0625 C7.31011719 8.16722656 7.93273437 9.27195313 8.57421875 10.41015625 C9.04472656 11.26480469 9.51523437 12.11945313 10 13 C9.34 13.66 8.68 14.32 8 15 C6.66121428 12.8782637 5.32884524 10.75294812 4 8.625 C3.6184375 8.02171875 3.236875 7.4184375 2.84375 6.796875 C0 2.2265625 0 2.2265625 0 0 Z " fill="#171717" transform="translate(413,207)"/>
<path d="M0 0 C0.66 0.66 1.32 1.32 2 2 C0.2803109 3.18059217 -1.45119102 4.34398979 -3.1875 5.5 C-4.15042969 6.1496875 -5.11335938 6.799375 -6.10546875 7.46875 C-9.09682792 9.05122341 -10.68239856 9.33964475 -14 9 C-11.03786426 6.69534766 -7.97847243 4.72409552 -4.75 2.8125 C-3.85796875 2.28269531 -2.9659375 1.75289063 -2.046875 1.20703125 C-1.03367187 0.60955078 -1.03367187 0.60955078 0 0 Z " fill="#1A1A1A" transform="translate(513,420)"/>
<path d="M0 0 C0 0.33 0 0.66 0 1 C-12.48519362 3.48063781 -12.48519362 3.48063781 -19 2 C-13.05674546 -1.96216969 -6.73675421 -0.99294563 0 0 Z " fill="#212121" transform="translate(181,399)"/>
<path d="M0 0 C0.33 0 0.66 0 1 0 C1 2.64 1 5.28 1 8 C1.68707031 8.04898438 2.37414062 8.09796875 3.08203125 8.1484375 C3.98308594 8.22320312 4.88414062 8.29796875 5.8125 8.375 C7.15248047 8.47941406 7.15248047 8.47941406 8.51953125 8.5859375 C11 9 11 9 14 11 C9.08517006 12.6421044 4.94466568 11.10604364 0 10 C0 6.7 0 3.4 0 0 Z " fill="#2C2C2C" transform="translate(335,192)"/>
<path d="M0 0 C0.66 0.66 1.32 1.32 2 2 C0 3 0 3 -3.8125 1.875 C-7.36188833 0.88462437 -7.36188833 0.88462437 -10.8125 2.4375 C-11.534375 2.953125 -12.25625 3.46875 -13 4 C-13.99 3.67 -14.98 3.34 -16 3 C-15.34 3 -14.68 3 -14 3 C-14 2.34 -14 1.68 -14 1 C-9.38565925 -1.53044493 -4.99065483 -1.21579803 0 0 Z " fill="#111111" transform="translate(374,73)"/>
<path d="M0 0 C3.04516202 2.83332467 5.16868601 5.65500311 7.25 9.25 C8.03117187 10.58804688 8.03117187 10.58804688 8.828125 11.953125 C9.21484375 12.62859375 9.6015625 13.3040625 10 14 C9.01 14 8.02 14 7 14 C5.17578125 11.69921875 5.17578125 11.69921875 3.3125 8.6875 C2.37857422 7.20830078 2.37857422 7.20830078 1.42578125 5.69921875 C0 3 0 3 0 0 Z " fill="#171717" transform="translate(399,184)"/>
<path d="M0 0 C1 4 1 4 -0.43359375 6.578125 C-1.09488281 7.45984375 -1.75617188 8.3415625 -2.4375 9.25 C-3.42556641 10.58804688 -3.42556641 10.58804688 -4.43359375 11.953125 C-4.95050781 12.62859375 -5.46742188 13.3040625 -6 14 C-6.99 13.67 -7.98 13.34 -9 13 C-6.03 8.71 -3.06 4.42 0 0 Z " fill="#171717" transform="translate(264,158)"/>
<path d="M0 0 C0.99 0.33 1.98 0.66 3 1 C2.0409375 2.0209375 2.0409375 2.0209375 1.0625 3.0625 C-1.3258493 6.46408839 -1.67877153 8.90433701 -2 13 C-4 11 -4 11 -4.375 8.1875 C-3.92199358 4.33694545 -2.6183364 2.78198242 0 0 Z " fill="#0C0C0C" transform="translate(266,122)"/>
<path d="M0 0 C0.33 0 0.66 0 1 0 C1 3.3 1 6.6 1 10 C1.66 10 2.32 10 3 10 C3.99 12.64 4.98 15.28 6 18 C5.01 18 4.02 18 3 18 C-0.24201565 11.92122066 -0.33278764 6.81598387 0 0 Z " fill="#181818" transform="translate(284,231)"/>
<path d="M0 0 C0.66 0.66 1.32 1.32 2 2 C1.34 2 0.68 2 0 2 C0 1.34 0 0.68 0 0 Z M-1 2 C-0.34 2.66 0.32 3.32 1 4 C0.67 4.66 0.34 5.32 0 6 C-0.66 6 -1.32 6 -2 6 C-2.103125 6.928125 -2.20625 7.85625 -2.3125 8.8125 C-3.0070192 12.03254358 -3.47740939 13.02579865 -6 15 C-6.33 14.34 -6.66 13.68 -7 13 C-5.78515625 10.3984375 -5.78515625 10.3984375 -4.0625 7.375 C-3.21365234 5.87066406 -3.21365234 5.87066406 -2.34765625 4.3359375 C-1.90292969 3.56507813 -1.45820313 2.79421875 -1 2 Z " fill="#1A1A1A" transform="translate(218,231)"/>
<path d="M0 0 C-0.99 0 -1.98 0 -3 0 C-3 0.66 -3 1.32 -3 2 C-6.96 2.66 -10.92 3.32 -15 4 C-15 3.34 -15 2.68 -15 2 C-13.25364835 1.46706165 -11.50272348 0.94909337 -9.75 0.4375 C-8.77546875 0.14746094 -7.8009375 -0.14257812 -6.796875 -0.44140625 C-4.03756068 -0.99249836 -2.6087176 -0.93789609 0 0 Z " fill="#101010" transform="translate(406,554)"/>
<path d="M0 0 C0.66 0 1.32 0 2 0 C1.875 1.75 1.875 1.75 1 4 C-2.17090547 6.46625981 -4.98577764 8.38242733 -9 9 C-9.33 8.01 -9.66 7.02 -10 6 C-7.03 5.34 -4.06 4.68 -1 4 C-0.67 2.68 -0.34 1.36 0 0 Z " fill="#0D0D0D" transform="translate(141,545)"/>
<path d="M0 0 C0.66 0.66 1.32 1.32 2 2 C0.40629329 3.36646148 -1.20032982 4.71787166 -2.8125 6.0625 C-4.15248047 7.19365234 -4.15248047 7.19365234 -5.51953125 8.34765625 C-6.33808594 8.89292969 -7.15664063 9.43820312 -8 10 C-8.99 9.67 -9.98 9.34 -11 9 C-7.37 6.03 -3.74 3.06 0 0 Z " fill="#1F1F1F" transform="translate(428,357)"/>
<path d="M0 0 C3.44428265 1.44781793 5.36130962 3.27694609 7.75 6.125 C8.36359375 6.84945313 8.9771875 7.57390625 9.609375 8.3203125 C10.29773438 9.15175781 10.29773438 9.15175781 11 10 C10.34 10.66 9.68 11.32 9 12 C8.443125 11.0925 7.88625 10.185 7.3125 9.25 C5.10622823 6.14929372 2.97108653 4.31084508 0 2 C0 1.34 0 0.68 0 0 Z " fill="#1B1B1B" transform="translate(350,256)"/>
<path d="M0 0 C5.35152885 0.32433508 8.28280043 3.49704824 12 7 C11.34 7.66 10.68 8.32 10 9 C9.278125 8.21625 8.55625 7.4325 7.8125 6.625 C5.16700959 4.15587562 3.39626389 3.06739722 0 2 C0 1.34 0 0.68 0 0 Z " fill="#111111" transform="translate(400,430)"/>
<path d="M0 0 C0.66 0.33 1.32 0.66 2 1 C0.515 7.435 0.515 7.435 -1 14 C-3 10 -3 10 -2.5390625 7.421875 C-2.23742187 6.54015625 -1.93578125 5.6584375 -1.625 4.75 C-1.32851563 3.85796875 -1.03203125 2.9659375 -0.7265625 2.046875 C-0.48679687 1.37140625 -0.24703125 0.6959375 0 0 Z " fill="#151515" transform="translate(364,219)"/>
<path d="M0 0 C3.59648384 2.62446118 6.11692258 4.91999893 8 9 C7.67 9.99 7.34 10.98 7 12 C4.25498003 8.38813161 1.62987986 4.69604737 -1 1 C-0.67 0.67 -0.34 0.34 0 0 Z " fill="#1B1B1B" transform="translate(265,89)"/>
<path d="M0 0 C0.99 0.33 1.98 0.66 3 1 C4.56118428 1.06740865 6.1250252 1.08514456 7.6875 1.0625 C8.49574219 1.05347656 9.30398437 1.04445313 10.13671875 1.03515625 C10.75160156 1.02355469 11.36648437 1.01195312 12 1 C10.875 3 10.875 3 9 5 C5.69081929 5.48258885 3.86506087 5.63437797 1.125 3.625 C0 2 0 2 0 0 Z " fill="#1F1F1F" transform="translate(143,509)"/>
<path d="M0 0 C0.33 0 0.66 0 1 0 C1 3.96 1 7.92 1 12 C0.01 12.33 -0.98 12.66 -2 13 C-1.85966889 11.02043559 -1.7125877 9.04134859 -1.5625 7.0625 C-1.48128906 5.96035156 -1.40007813 4.85820312 -1.31640625 3.72265625 C-1 1 -1 1 0 0 Z " fill="#161616" transform="translate(583,421)"/>
<path d="M0 0 C-3.68734758 2.45823172 -6.69699971 3.01242616 -11 4 C-11 3.01 -11 2.02 -11 1 C-3.57142857 -1.42857143 -3.57142857 -1.42857143 0 0 Z " fill="#191919" transform="translate(399,377)"/>
<path d="M0 0 C0.98484375 0.10183594 1.9696875 0.20367187 2.984375 0.30859375 C4.10585938 0.43427734 4.10585938 0.43427734 5.25 0.5625 C5.25 0.8925 5.25 1.2225 5.25 1.5625 C4.33476563 1.62308594 3.41953125 1.68367188 2.4765625 1.74609375 C1.28804687 1.82988281 0.09953125 1.91367187 -1.125 2 C-2.30835938 2.08121094 -3.49171875 2.16242188 -4.7109375 2.24609375 C-7.66518901 2.37334936 -7.66518901 2.37334936 -9.75 3.5625 C-9.75 2.5725 -9.75 1.5825 -9.75 0.5625 C-6.33860997 -0.53401823 -3.54344419 -0.37965473 0 0 Z " fill="#1B1B1B" transform="translate(556.75,399.4375)"/>
<path d="M0 0 C3.96 0.33 7.92 0.66 12 1 C12 1.66 12 2.32 12 3 C8.37 3 4.74 3 1 3 C0.67 2.01 0.34 1.02 0 0 Z " fill="#0C0C0C" transform="translate(211,397)"/>
<path d="M0 0 C2 1 2 1 2.8515625 3.50390625 C3.10679687 4.51324219 3.36203125 5.52257812 3.625 6.5625 C3.88539063 7.57441406 4.14578125 8.58632812 4.4140625 9.62890625 C4.60742188 10.41136719 4.80078125 11.19382812 5 12 C4.01 12.495 4.01 12.495 3 13 C1.68 9.04 0.36 5.08 -1 1 C-0.67 0.67 -0.34 0.34 0 0 Z " fill="#151515" transform="translate(273,101)"/>
<path d="M0 0 C0.66 0.66 1.32 1.32 2 2 C-2.455 4.97 -2.455 4.97 -7 8 C-7.66 7.34 -8.32 6.68 -9 6 C-6.03 4.02 -3.06 2.04 0 0 Z " fill="#1C1C1C" transform="translate(524,476)"/>
<path d="M0 0 C0.66 0.66 1.32 1.32 2 2 C0.71186658 2.83878455 -0.58063256 3.67086783 -1.875 4.5 C-2.59429688 4.9640625 -3.31359375 5.428125 -4.0546875 5.90625 C-6 7 -6 7 -8 7 C-6.5361389 2.60841671 -4.02168662 2.12052567 0 0 Z " fill="#1A1A1A" transform="translate(525,413)"/>
<path d="M0 0 C3.96 1.98 7.92 3.96 12 6 C9 7 9 7 6.51953125 6.00390625 C5.62621094 5.52824219 4.73289062 5.05257812 3.8125 4.5625 C2.91144531 4.08941406 2.01039063 3.61632812 1.08203125 3.12890625 C0.39496094 2.75636719 -0.29210937 2.38382813 -1 2 C-0.67 1.34 -0.34 0.68 0 0 Z " fill="#0E0E0E" transform="translate(347,231)"/>
<path d="M0 0 C0.99 0.33 1.98 0.66 3 1 C-0.96 4.465 -0.96 4.465 -5 8 C-5.66 7.34 -6.32 6.68 -7 6 C-5.90716423 4.96704564 -4.80029421 3.94892165 -3.6875 2.9375 C-3.07261719 2.36902344 -2.45773437 1.80054688 -1.82421875 1.21484375 C-0.92123047 0.61349609 -0.92123047 0.61349609 0 0 Z " fill="#212121" transform="translate(355,300)"/>
<path d="M0 0 C2.96404505 2.80804268 5.44499019 5.18315774 7 9 C6.01 9 5.02 9 4 9 C0 3.85714286 0 3.85714286 0 0 Z " fill="#1A1A1A" transform="translate(392,174)"/>
<path d="M0 0 C0.66 0.66 1.32 1.32 2 2 C0.71283353 3.00578589 -0.57988658 4.00446798 -1.875 5 C-2.95394531 5.8353125 -2.95394531 5.8353125 -4.0546875 6.6875 C-6 8 -6 8 -8 8 C-6.49776416 3.79373966 -3.71449966 2.26099979 0 0 Z " fill="#1B1B1B" transform="translate(559,451)"/>
<path d="M0 0 C0.66 0.66 1.32 1.32 2 2 C0.02 2.99 -1.96 3.98 -4 5 C-4.33 4.34 -4.66 3.68 -5 3 C-3.35 2.01 -1.7 1.02 0 0 Z M-7 4 C-6.34 4 -5.68 4 -5 4 C-5.33 4.99 -5.66 5.98 -6 7 C-6.99 6.67 -7.98 6.34 -9 6 C-8.34 5.34 -7.68 4.68 -7 4 Z " fill="#1C1C1C" transform="translate(472,444)"/>
<path d="M0 0 C0.66 0.66 1.32 1.32 2 2 C0.71186658 2.83878455 -0.58063256 3.67086783 -1.875 4.5 C-2.59429687 4.9640625 -3.31359375 5.428125 -4.0546875 5.90625 C-6 7 -6 7 -8 7 C-6.5361389 2.60841671 -4.02168662 2.12052567 0 0 Z " fill="#181818" transform="translate(473,426)"/>
<path d="M0 0 C0.66 0.66 1.32 1.32 2 2 C-0.97 3.65 -3.94 5.3 -7 7 C-7 6.01 -7 5.02 -7 4 C-4.69 2.68 -2.38 1.36 0 0 Z " fill="#171717" transform="translate(506,406)"/>
<path d="M0 0 C3 3 6 6 9 9 C6 9 6 9 4.39453125 7.79296875 C3.87246094 7.26316406 3.35039062 6.73335938 2.8125 6.1875 C2.01779297 5.40439453 2.01779297 5.40439453 1.20703125 4.60546875 C0 3 0 3 0 0 Z " fill="#1E1E1E" transform="translate(290,250)"/>
<path d="M0 0 C0.66 0 1.32 0 2 0 C0.7580393 3.43927579 -0.55740284 6.25207819 -3 9 C-3.66 9 -4.32 9 -5 9 C-3.7580393 5.56072421 -2.44259716 2.74792181 0 0 Z " fill="#161616" transform="translate(245,187)"/>
<path d="M0 0 C3.00617269 3.00617269 2.59585316 5.82381598 3 10 C2.01 10.495 2.01 10.495 1 11 C-0.20272819 8.59454362 -0.10071472 7.05003047 -0.0625 4.375 C-0.05347656 3.55773437 -0.04445313 2.74046875 -0.03515625 1.8984375 C-0.02355469 1.27195312 -0.01195312 0.64546875 0 0 Z " fill="#212121" transform="translate(261,77)"/>
<path d="M0 0 C2.97 0.33 5.94 0.66 9 1 C8.67 1.66 8.34 2.32 8 3 C2.25 3.125 2.25 3.125 0 2 C0 1.34 0 0.68 0 0 Z " fill="#2B2B2B" transform="translate(271,67)"/>
<path d="M0 0 C-0.33 0.66 -0.66 1.32 -1 2 C-4.3 2 -7.6 2 -11 2 C-4.31914894 -1.34042553 -4.31914894 -1.34042553 0 0 Z " fill="#383838" transform="translate(288,551)"/>
<path d="M0 0 C-0.33 0.99 -0.66 1.98 -1 3 C-1.66 3 -2.32 3 -3 3 C-3.33 3.66 -3.66 4.32 -4 5 C-4.33 4.01 -4.66 3.02 -5 2 C-2 0 -2 0 0 0 Z M-5 3 C-5.33 3.99 -5.66 4.98 -6 6 C-6.99 6 -7.98 6 -9 6 C-9 5.34 -9 4.68 -9 4 C-7 3 -7 3 -5 3 Z " fill="#191919" transform="translate(484,438)"/>
<path d="M0 0 C0.66 0.66 1.32 1.32 2 2 C0.68 4.64 -0.64 7.28 -2 10 C-2.66 9.67 -3.32 9.34 -4 9 C-2.94124926 5.59687262 -1.99097846 2.98646769 0 0 Z " fill="#1E1E1E" transform="translate(47,406)"/>
<path d="M0 0 C1.258125 0.12375 2.51625 0.2475 3.8125 0.375 C4.87404297 0.47941406 4.87404297 0.47941406 5.95703125 0.5859375 C8 1 8 1 11 3 C9.741875 3.020625 8.48375 3.04125 7.1875 3.0625 C6.47980469 3.07410156 5.77210938 3.08570313 5.04296875 3.09765625 C3 3 3 3 0 2 C0 1.34 0 0.68 0 0 Z " fill="#262626" transform="translate(261,408)"/>
<path d="M0 0 C0.66 0.66 1.32 1.32 2 2 C-0.68841859 4.25245881 -2.64641875 5.88213958 -6 7 C-6.33 6.34 -6.66 5.68 -7 5 C-4.69 3.35 -2.38 1.7 0 0 Z " fill="#1B1B1B" transform="translate(406,352)"/>
<path d="M0 0 C0.66 0.33 1.32 0.66 2 1 C2.28571429 8.42857143 2.28571429 8.42857143 0 12 C-1.16063604 7.74433453 -0.76173392 4.3164922 0 0 Z " fill="#111111" transform="translate(434,296)"/>
<path d="M0 0 C0.79921875 0.11085938 1.5984375 0.22171875 2.421875 0.3359375 C3.32679688 0.47902344 3.32679688 0.47902344 4.25 0.625 C1.0750906 2.5328584 -0.85585211 2.7859041 -4.5 2.25 C-5.29921875 2.13914062 -6.0984375 2.02828125 -6.921875 1.9140625 C-7.52515625 1.81867188 -8.1284375 1.72328125 -8.75 1.625 C-5.5750906 -0.2828584 -3.64414789 -0.5359041 0 0 Z " fill="#242424" transform="translate(296.75,286.375)"/>
<path d="M0 0 C0.66 0.33 1.32 0.66 2 1 C0.37660195 2.70884005 -1.29319053 4.37446717 -3 6 C-3.66 6 -4.32 6 -5 6 C-4.75 4.125 -4.75 4.125 -4 2 C-2.0625 0.6875 -2.0625 0.6875 0 0 Z " fill="#0F0F0F" transform="translate(332,228)"/>
<path d="M0 0 C0.66 0.66 1.32 1.32 2 2 C0.68 4.31 -0.64 6.62 -2 9 C-2.66 8.67 -3.32 8.34 -4 8 C-2.87548273 5.0280615 -1.77706209 2.66559313 0 0 Z " fill="#171717" transform="translate(236,201)"/>
<path d="M0 0 C2.530472 0.33739627 3.6818563 0.6061078 5.3125 2.625 C6.27383682 5.94598174 5.64496692 8.64617202 5 12 C4.67 12 4.34 12 4 12 C3.67 8.7 3.34 5.4 3 2 C2.01 1.67 1.02 1.34 0 1 C0 0.67 0 0.34 0 0 Z " fill="#171717" transform="translate(369,123)"/>
<path d="M0 0 C-0.33 0.66 -0.66 1.32 -1 2 C-8.42857143 2.28571429 -8.42857143 2.28571429 -12 0 C-7.91556885 -1.53166168 -4.20544343 -0.63081652 0 0 Z " fill="#111111" transform="translate(319,78)"/>
<path d="M0 0 C0.66 0.33 1.32 0.66 2 1 C-2.625 5.875 -2.625 5.875 -6 7 C-6.33 6.34 -6.66 5.68 -7 5 C-4.69 3.35 -2.38 1.7 0 0 Z " fill="#191919" transform="translate(418,477)"/>
<path d="M0 0 C0.66 0.33 1.32 0.66 2 1 C0.12050295 4.57104439 -1.17053157 6.54744301 -5 8 C-5 5 -5 5 -2.5 2.3125 C-1.675 1.549375 -0.85 0.78625 0 0 Z " fill="#171717" transform="translate(579,435)"/>
<path d="M0 0 C-0.33 0.66 -0.66 1.32 -1 2 C-4.3 1.67 -7.6 1.34 -11 1 C-6.46780033 -1.26609984 -4.82227075 -0.92735976 0 0 Z " fill="#141414" transform="translate(313,421)"/>
<path d="M0 0 C0.99 0.33 1.98 0.66 3 1 C0.47043472 4.0916909 -2.22454612 4.90931332 -6 6 C-4 4 -2 2 0 0 Z " fill="#C2C2C2" transform="translate(396,356)"/>
<path d="M0 0 C0.33 0.99 0.66 1.98 1 3 C-0.9375 6.1875 -0.9375 6.1875 -3 9 C-3.66 8.34 -4.32 7.68 -5 7 C-4.67 6.01 -4.34 5.02 -4 4 C-3.34 4 -2.68 4 -2 4 C-1.34 2.68 -0.68 1.36 0 0 Z " fill="#141414" transform="translate(416,331)"/>
<path d="M0 0 C3.67420866 0.30618405 4.78135513 0.75771784 7.3125 3.5625 C8.1478125 4.7690625 8.1478125 4.7690625 9 6 C4.58763974 6 3.21615077 3.9302707 0 1 C0 0.67 0 0.34 0 0 Z " fill="#232323" transform="translate(312,270)"/>
<path d="M0 0 C0.99 0 1.98 0 3 0 C3.99 2.31 4.98 4.62 6 7 C5.01 7 4.02 7 3 7 C2.01 4.69 1.02 2.38 0 0 Z " fill="#161616" transform="translate(435,249)"/>
<path d="M0 0 C-0.99 0 -1.98 0 -3 0 C-3.33 0.99 -3.66 1.98 -4 3 C-5.98 3 -7.96 3 -10 3 C-9 1 -9 1 -6.6875 -0.1875 C-3.88010429 -1.03624754 -2.698065 -0.99928333 0 0 Z " fill="#1B1B1B" transform="translate(315,202)"/>
<path d="M0 0 C-1.36983503 3.16115776 -1.9890638 3.9927092 -5 6 C-5.99 5.67 -6.98 5.34 -8 5 C-2.25 0 -2.25 0 0 0 Z " fill="#171717" transform="translate(471,515)"/>
<path d="M0 0 C0.66 0.66 1.32 1.32 2 2 C-1.96 3.98 -1.96 3.98 -6 6 C-6.33 5.34 -6.66 4.68 -7 4 C-4.69 2.68 -2.38 1.36 0 0 Z " fill="#1F1F1F" transform="translate(429,469)"/>
<path d="M0 0 C0.99 0 1.98 0 3 0 C1.86280581 3.41158256 0.95657056 4.11854601 -2 6 C-2.66 6 -3.32 6 -4 6 C-3.34 4.68 -2.68 3.36 -2 2 C-1.34 2 -0.68 2 0 2 C0 1.34 0 0.68 0 0 Z " fill="#191919" transform="translate(541,463)"/>
<path d="M0 0 C0.99 0.33 1.98 0.66 3 1 C4.1875 4.0625 4.1875 4.0625 5 7 C4.01 7 3.02 7 2 7 C1.34 4.69 0.68 2.38 0 0 Z " fill="#232323" transform="translate(578,411)"/>
<path d="M0 0 C0.66 0.66 1.32 1.32 2 2 C-2.625 5 -2.625 5 -6 5 C-6 4.34 -6 3.68 -6 3 C-4.02 2.01 -2.04 1.02 0 0 Z " fill="#171717" transform="translate(496,394)"/>
<path d="M0 0 C0 0.33 0 0.66 0 1 C-3.63 1.66 -7.26 2.32 -11 3 C-10.67 2.01 -10.34 1.02 -10 0 C-6.7169902 -1.6415049 -3.57454967 -0.51888624 0 0 Z " fill="#1F1F1F" transform="translate(512,391)"/>
<path d="M0 0 C3.79588866 0.54226981 5.47211993 2.20127563 8 5 C5 5 5 5 2.3125 2.5 C1.549375 1.675 0.78625 0.85 0 0 Z " fill="#171717" transform="translate(215,364)"/>
<path d="M0 0 C0.66 0.33 1.32 0.66 2 1 C0.38405168 3.04119788 -1.2856382 5.04072937 -3 7 C-3.66 7 -4.32 7 -5 7 C-3.70700306 4.11562221 -2.34058637 2.12780579 0 0 Z " fill="#0E0E0E" transform="translate(414,345)"/>
<path d="M0 0 C3.2542015 2.83430453 4.5206753 4.68607774 5 9 C2.33264727 6.51047079 0.44253657 4.36591866 -1 1 C-0.67 0.67 -0.34 0.34 0 0 Z " fill="#131313" transform="translate(201,346)"/>
<path d="M0 0 C0.33 0 0.66 0 1 0 C1.25 7.625 1.25 7.625 -1 11 C-2.60080151 6.99799622 -1.29279692 3.95443764 0 0 Z " fill="#151515" transform="translate(430,297)"/>
<path d="M0 0 C0.66 0.33 1.32 0.66 2 1 C1.50168276 4.68754757 0.89932357 6.60490662 -2 9 C-2.33 8.34 -2.66 7.68 -3 7 C-2.06421005 4.64018187 -1.06652192 2.30368736 0 0 Z " fill="#1F1F1F" transform="translate(361,289)"/>
<path d="M0 0 C1.89213369 2.38573379 3.02391783 4.07175348 4 7 C3.34 7.66 2.68 8.32 2 9 C0.4375 6.1875 0.4375 6.1875 -1 3 C-0.67 2.01 -0.34 1.02 0 0 Z " fill="#262626" transform="translate(432,238)"/>
<path d="M0 0 C-1.0975223 2.99324263 -1.67682892 3.84610901 -4.625 5.25 C-5.40875 5.4975 -6.1925 5.745 -7 6 C-5.81636731 2.44910192 -3.99368042 0 0 0 Z " fill="#181818" transform="translate(513,485)"/>
<path d="M0 0 C0.33 0.99 0.66 1.98 1 3 C-1.375 4.5625 -1.375 4.5625 -4 6 C-4.66 5.67 -5.32 5.34 -6 5 C-2.25 1.125 -2.25 1.125 0 0 Z " fill="#1B1B1B" transform="translate(467,409)"/>
<path d="M0 0 C-0.33 0.66 -0.66 1.32 -1 2 C-4.0625 2.625 -4.0625 2.625 -7 3 C-7.33 2.34 -7.66 1.68 -8 1 C-3.375 -1.125 -3.375 -1.125 0 0 Z " fill="#1B1B1B" transform="translate(454,387)"/>
<path d="M0 0 C0.66 0 1.32 0 2 0 C0.25 5.75 0.25 5.75 -2 8 C-3 5 -3 5 -1.6875 2.3125 C-1.130625 1.549375 -0.57375 0.78625 0 0 Z " fill="#1A1A1A" transform="translate(203,261)"/>
</svg>
